<svg id="visual" viewBox="0 0 960 540" width="960" height="540" xmlns="http://www.w3.org/2000/svg" xmlns:xlink="http://www.w3.org/1999/xlink" version="1.1"><rect x="0" y="0" width="960" height="540" fill="rgb(26, 26, 26)"></rect><path d="M0 239L16 246.2C32 253.3 64 267.7 96 266.2C128 264.7 160 247.3 192 247.2C224 247 256 264 288 273.8C320 283.7 352 286.3 384 278.5C416 270.7 448 252.3 480 250.7C512 249 544 264 576 269.3C608 274.7 640 270.3 672 260.8C704 251.3 736 236.7 768 242.5C800 248.3 832 274.7 864 278.3C896 282 928 263 944 253.5L960 244L960 0L944 0C928 0 896 0 864 0C832 0 800 0 768 0C736 0 704 0 672 0C640 0 608 0 576 0C544 0 512 0 480 0C448 0 416 0 384 0C352 0 320 0 288 0C256 0 224 0 192 0C160 0 128 0 96 0C64 0 32 0 16 0L0 0Z" fill="#6983fa"></path><path d="M0 189L16 192.2C32 195.3 64 201.7 96 206.7C128 211.7 160 215.3 192 216.2C224 217 256 215 288 208.8C320 202.7 352 192.3 384 193.7C416 195 448 208 480 210.3C512 212.7 544 204.3 576 198.5C608 192.7 640 189.3 672 186.3C704 183.3 736 180.7 768 175.7C800 170.7 832 163.3 864 163.3C896 163.3 928 170.7 944 174.3L960 178L960 0L944 0C928 0 896 0 864 0C832 0 800 0 768 0C736 0 704 0 672 0C640 0 608 0 576 0C544 0 512 0 480 0C448 0 416 0 384 0C352 0 320 0 288 0C256 0 224 0 192 0C160 0 128 0 96 0C64 0 32 0 16 0L0 0Z" fill="#5967eb"></path><path d="M0 125L16 125.8C32 126.7 64 128.3 96 124.2C128 120 160 110 192 116.8C224 123.7 256 147.3 288 151.8C320 156.3 352 141.7 384 136.3C416 131 448 135 480 135.2C512 135.3 544 131.7 576 137.5C608 143.3 640 158.7 672 158.8C704 159 736 144 768 137.3C800 130.7 832 132.3 864 127.8C896 123.3 928 112.7 944 107.3L960 102L960 0L944 0C928 0 896 0 864 0C832 0 800 0 768 0C736 0 704 0 672 0C640 0 608 0 576 0C544 0 512 0 480 0C448 0 416 0 384 0C352 0 320 0 288 0C256 0 224 0 192 0C160 0 128 0 96 0C64 0 32 0 16 0L0 0Z" fill="#4d48da"></path><path d="M0 83L16 76.5C32 70 64 57 96 60.2C128 63.3 160 82.7 192 87.3C224 92 256 82 288 74.3C320 66.7 352 61.3 384 54.7C416 48 448 40 480 40.5C512 41 544 50 576 61.8C608 73.7 640 88.3 672 81.8C704 75.3 736 47.7 768 47.7C800 47.7 832 75.3 864 83.8C896 92.3 928 81.7 944 76.3L960 71L960 0L944 0C928 0 896 0 864 0C832 0 800 0 768 0C736 0 704 0 672 0C640 0 608 0 576 0C544 0 512 0 480 0C448 0 416 0 384 0C352 0 320 0 288 0C256 0 224 0 192 0C160 0 128 0 96 0C64 0 32 0 16 0L0 0Z" fill="#4624c7"></path></svg>