<svg id="visual" viewBox="0 0 960 540" width="960" height="540" xmlns="http://www.w3.org/2000/svg" xmlns:xlink="http://www.w3.org/1999/xlink" version="1.1"><rect x="0" y="0" width="960" height="540" fill="#ffffff"></rect><path d="M0 299L16 291.8C32 284.7 64 270.3 96 271.8C128 273.3 160 290.7 192 290.8C224 291 256 274 288 264.2C320 254.3 352 251.7 384 259.5C416 267.3 448 285.7 480 287.3C512 289 544 274 576 268.7C608 263.3 640 267.7 672 277.2C704 286.7 736 301.3 768 295.5C800 289.7 832 263.3 864 259.7C896 256 928 275 944 284.5L960 294L960 541L944 541C928 541 896 541 864 541C832 541 800 541 768 541C736 541 704 541 672 541C640 541 608 541 576 541C544 541 512 541 480 541C448 541 416 541 384 541C352 541 320 541 288 541C256 541 224 541 192 541C160 541 128 541 96 541C64 541 32 541 16 541L0 541Z" fill="#6983fa"></path><path d="M0 349L16 345.8C32 342.7 64 336.3 96 331.3C128 326.3 160 322.7 192 321.8C224 321 256 323 288 329.2C320 335.3 352 345.7 384 344.3C416 343 448 330 480 327.7C512 325.3 544 333.7 576 339.5C608 345.3 640 348.7 672 351.7C704 354.7 736 357.3 768 362.3C800 367.3 832 374.7 864 374.7C896 374.7 928 367.3 944 363.7L960 360L960 541L944 541C928 541 896 541 864 541C832 541 800 541 768 541C736 541 704 541 672 541C640 541 608 541 576 541C544 541 512 541 480 541C448 541 416 541 384 541C352 541 320 541 288 541C256 541 224 541 192 541C160 541 128 541 96 541C64 541 32 541 16 541L0 541Z" fill="#5967eb"></path><path d="M0 413L16 412.2C32 411.3 64 409.7 96 413.8C128 418 160 428 192 421.2C224 414.3 256 390.7 288 386.2C320 381.7 352 396.3 384 401.7C416 407 448 403 480 402.8C512 402.7 544 406.3 576 400.5C608 394.7 640 379.3 672 379.2C704 379 736 394 768 400.7C800 407.3 832 405.7 864 410.2C896 414.7 928 425.3 944 430.7L960 436L960 541L944 541C928 541 896 541 864 541C832 541 800 541 768 541C736 541 704 541 672 541C640 541 608 541 576 541C544 541 512 541 480 541C448 541 416 541 384 541C352 541 320 541 288 541C256 541 224 541 192 541C160 541 128 541 96 541C64 541 32 541 16 541L0 541Z" fill="#4d48da"></path><path d="M0 455L16 461.5C32 468 64 481 96 477.8C128 474.7 160 455.3 192 450.7C224 446 256 456 288 463.7C320 471.3 352 476.7 384 483.3C416 490 448 498 480 497.5C512 497 544 488 576 476.2C608 464.3 640 449.7 672 456.2C704 462.7 736 490.3 768 490.3C800 490.3 832 462.7 864 454.2C896 445.7 928 456.3 944 461.7L960 467L960 541L944 541C928 541 896 541 864 541C832 541 800 541 768 541C736 541 704 541 672 541C640 541 608 541 576 541C544 541 512 541 480 541C448 541 416 541 384 541C352 541 320 541 288 541C256 541 224 541 192 541C160 541 128 541 96 541C64 541 32 541 16 541L0 541Z" fill="#4624c7"></path></svg>